<svg xmlns="http://www.w3.org/2000/svg" viewBox="0 0 32 32"><path fill="#001926" fill-rule="evenodd" d="M10.1 16.57c-.65.55-1.46.87-2.31.92a4.2 4.2 0 01-2.4-1.04 3.23 3.23 0 01-.88-2.1c0-.82.3-1.6.87-2.2a3.39 3.39 0 012.4-1.01 3.3 3.3 0 012.31.84c.63.62 1 1.45 1.04 2.33-.03.86-.4 1.67-1.02 2.26h-.02zm.56-14.9V7.8A6.66 6.66 0 001.9 9.23a7.73 7.73 0 00.6 10.8 5.78 5.78 0 004.56 1.87c1.22 0 2.94-.35 3.62-1.08v1.2h5.22V1.68h-5.24zM26.7 17.49a3.19 3.19 0 11-4.23-4.76c.6-.45 1.33-.7 2.07-.67.85 0 1.67.35 2.23.98.6.59.92 1.39.92 2.22.06.86-.3 1.7-.99 2.23m3.36-7.18L32 7.84h-8c-2 0-3.6.97-5.03 2.38a7.17 7.17 0 00-1.89 4.88 7.5 7.5 0 002.43 5.64 6.84 6.84 0 004.96 1.88 4.1 4.1 0 001.96-.3c.15.37.22.77.2 1.17a2.15 2.15 0 01-2.36 2.27c-1.48 0-3.97-1.9-3.97-1.9l-2.9 3.96a15.7 15.7 0 004 2.27c1.9.6 2.16.53 2.77.53.6 0 3.44-.07 5.09-1.92 1.65-1.86 2.25-2.84 2.25-5.14a7.62 7.62 0 00-1.03-4 6.44 6.44 0 001.4-4.34c.1-1.81-.55-3.6-1.81-4.91"/></svg>